<?xml version="1.0" encoding="UTF-8"?>
<svg id="Ebene_1" xmlns="http://www.w3.org/2000/svg" width="30" height="8" viewBox="0 0 30 8">
  <path d="M30,6.85v1.15H0v-1.15c2.35,0,5.96-.35,8.72-2.35C11.22,2.69,12.55.4,15.19.38c2.92-.02,4.39,2.16,7.06,4.12,2.88,2.11,5.39,2.35,7.75,2.35Z" fill="#fff"/>
  <path d="M30,6.54v.69c-2.35,0-4.87-.24-7.75-2.35-2.67-1.96-4.14-4.14-7.06-4.12-2.65.02-3.97,2.31-6.47,4.12C5.96,6.88,2.35,7.23,0,7.23v-.65c2.35,0,5.51-.18,8.28-2.18C10.78,2.59,12.55.02,15.19,0c2.92-.02,4.63,2.26,7.3,4.22,2.88,2.11,5.15,2.32,7.5,2.32Z"/>
</svg>